<?xml version="1.0" encoding="UTF-8" standalone="no"?>
<svg
   xmlns:dc="http://purl.org/dc/elements/1.1/"
   xmlns:cc="http://creativecommons.org/ns#"
   xmlns:rdf="http://www.w3.org/1999/02/22-rdf-syntax-ns#"
   xmlns:svg="http://www.w3.org/2000/svg"
   xmlns="http://www.w3.org/2000/svg"
   xmlns:sodipodi="http://sodipodi.sourceforge.net/DTD/sodipodi-0.dtd"
   xmlns:inkscape="http://www.inkscape.org/namespaces/inkscape"
   id="Capa_1"
   enable-background="new 0 0 512 512"
   height="515.52362"
   viewBox="0 0 307.06271 515.52362"
   width="307.06271"
   version="1.1"
   sodipodi:docname="app_analytics_poi_icon.svg"
   inkscape:version="1.0.2 (e86c8708, 2021-01-15)">
  <path
     d="M 153.24078,7.5165089 C 73.23178,7.6085089 7.7477803,74.838509 7.6907803,154.84651 c -0.025,35.549 -0.004,29.419 121.4079997,301.072 23.5679,49.36679 24.22223,50.20267 48.628,0.003 121.311,-271.328 121.404,-264.608 121.404,-302.686 0,-80.535001 -65.332,-145.8110011 -145.89,-145.7190011 z"
     fill="#eb5569"
     id="path18"
     style="fill:#0d6efd;fill-opacity:1;stroke-width:1;stroke-miterlimit:4;stroke-dasharray:none"
     sodipodi:nodetypes="ccccsc" />
  <path
     id="path48"
     d="M 153.23109,0.01650886 C 80.718834,-1.1214341 14.207218,56.716246 2.5991118,127.81869 c -5.5376385,28.18508 -2.23255869,57.56353 9.9737782,83.59821 34.78529,83.5029 73.353924,165.37538 109.98733,248.07662 30.51961,74.15762 30.62881,74.03932 59.84237,3.58754 34.52199,-75.83649 68.78007,-151.86122 102.0789,-228.25904 12.10044,-28.3784 25.68655,-57.75664 21.95112,-89.47161 C 304.1741,76.09432 248.95455,13.451204 180.57002,2.4095365 171.55244,0.79953166 162.39082,0.00528604 153.23109,0.01650886 Z m 0.0195,15.00000014 c 63.85284,-1.342337 123.86945,47.572407 135.57274,110.326991 6.18713,28.03736 2.61029,57.44105 -9.58224,83.37109 -35.2608,82.91322 -72.95985,164.80882 -109.90221,246.97128 -16.12077,33.83606 -16.38953,33.17866 -37.58775,-12.21057 C 95.736105,361.4361 57.021449,280.54187 23.284618,197.52766 0.04922387,139.8482 28.390247,70.187211 79.499768,37.461084 101.25344,23.103645 127.1418,14.985498 153.25059,15.016509 Z"
     sodipodi:nodetypes="ccccccccccccccccc" />
  <metadata
     id="metadata59">
    <rdf:RDF>
      <cc:Work
         rdf:about="">
        <dc:format>image/svg+xml</dc:format>
        <dc:type
           rdf:resource="http://purl.org/dc/dcmitype/StillImage" />
        <dc:title></dc:title>
      </cc:Work>
    </rdf:RDF>
  </metadata>
  <defs
     id="defs57" />
  <sodipodi:namedview
     pagecolor="#ffffff"
     bordercolor="#666666"
     borderopacity="1"
     objecttolerance="10"
     gridtolerance="10"
     guidetolerance="10"
     inkscape:pageopacity="0"
     inkscape:pageshadow="2"
     inkscape:window-width="1156"
     inkscape:window-height="799"
     id="namedview55"
     showgrid="false"
     fit-margin-top="0"
     fit-margin-left="0"
     fit-margin-right="0"
     fit-margin-bottom="0"
     inkscape:zoom="1.4658142"
     inkscape:cx="153.26578"
     inkscape:cy="153.23651"
     inkscape:window-x="0"
     inkscape:window-y="23"
     inkscape:window-maximized="0"
     inkscape:current-layer="Capa_1"
     inkscape:document-rotation="0" />
  <path
     d="m 153.26578,267.77151 c -63.066,0 -114.373,-51.379 -114.373,-114.537 0,-63.154001 51.308,-114.533001 114.373,-114.533001 63.065,0 114.373,51.379 114.373,114.533001 10e-4,63.158 -51.307,114.537 -114.373,114.537 z"
     fill="#f8a5af"
     id="path22"
     style="fill:#0da9fd;fill-opacity:1" />
  <path
     id="path34"
     style="stroke-width:1.16456;fill:#ffffff;fill-opacity:1"
     d="M 117.85938 85.345703 C 105.32637 85.345703 95.166016 99.125931 95.166016 116.12305 L 95.166016 199.63672 L 107.99219 199.63672 L 107.99219 222.15039 L 200.17383 222.15039 L 200.17383 199.63672 L 211.65625 199.63672 L 211.65625 116.12305 C 211.65625 99.125931 201.49589 85.345703 188.96289 85.345703 L 117.85938 85.345703 z " />
  <path
     id="path44"
     d="m 153.26552,31.204009 c -67.200998,0 -121.874995,54.74225 -121.874995,122.031251 0.001,67.29 54.673997,122.03711 121.874995,122.03711 67.201,0 121.87305,-54.74611 121.87305,-122.03711 C 273.12489,85.120008 218.10526,32.083337 153.26552,31.204009 Z m 0,15 c 60.35957,3.353945 106.25105,48.732462 106.87305,107.031251 0,59.021 -47.94305,107.03711 -106.87305,107.03711 -58.930998,0 -106.874995,-48.01711 -106.874995,-107.03711 0,-59.018001 47.943997,-107.031251 106.874995,-107.031251 z"
     sodipodi:nodetypes="ccsccccssc" />
  <path
     d="m 219.15578,191.06951 v -17.898 -27.025 -42.381 -1.184 c 0,-16.648001 -13.545,-30.193001 -30.193,-30.193001 h -71.104 c -16.648,0 -30.193,13.545 -30.193,30.193001 v 1.184 42.381 27.024 17.898 c 0,9.483 6.659,17.426 15.542,19.438 l -8.211,15.819 c -2.59,4.991 1.05,10.957 6.651,10.957 2.71,0 5.328,-1.475 6.663,-4.047 l 0.763,-1.471 h 88.673 l 0.763,1.471 c 1.906,3.669 6.424,5.113 10.112,3.202 3.677,-1.908 5.11,-6.436 3.202,-10.112 l -2.919,-5.625 c -0.003,-0.005 -0.005,-0.01 -0.008,-0.015 l -5.283,-10.179 c 8.883,-2.012 15.542,-9.955 15.542,-19.437 z M 117.85878,87.388509 h 71.104 c 6.123,0 11.397,9.647 13.801,14.877001 h -98.705 c 2.403,-5.229001 7.678,-14.877001 13.8,-14.877001 z m -15.193,76.258001 h 13.217 v 12.024 h -13.217 z m 14.194,53.119 2.986,-5.753 h 67.13 l 2.986,5.753 z m 87.296,-25.696 c 0,2.726 -2.218,4.943 -4.944,4.943 h -91.602 c -2.727,0 -4.944,-2.218 -4.944,-4.943 v -0.398 h 14.712 c 7.446,0 13.505,-6.059 13.505,-13.505 v -13.52 h 45.057 v 13.52 c 0,7.446 6.12686,14.50801 13.505,13.505 h 14.712 v 0.398 z m 0,-15.399 h -13.217 v -12.024 h 13.217 z m 0,-27.024 h -101.49 v -31.381 h 101.49 z"
     id="path46"
     sodipodi:nodetypes="scccsssscccsccscccccccccsssccscccccccccccssscssccssccccccccccccc" />
</svg>
